# xmcd
#
# Track frame offsets: 
#        150
#        18520
#        34267
#        51972
#        66337
#        83630
#        103282
#        118807
#        133320
#        154097
#
# Disc length: 2287 seconds
#
# Revision: 2
# Processed by: cddbd v1.5.2PL0 Copyright (c) Steve Scherf et al.
# Submitted via: ExactAudioCopy v0.95b4
#
DISCID=8f08ed0a
DTITLE=Lou Rawls - When You Heard Lou, You've Heard It All
DYEAR=1977
DGENRE=R&B
TTITLE0=Lady Love
TTITLE1=I Wish It Were Yesterday
TTITLE2=One Life To Live
TTITLE3=Dollar Green
TTITLE4=Trade Winds
TTITLE5=There Will Be Love
TTITLE6=Unforgettable
TTITLE7=That Would Do It For Me
TTITLE8=If I Coulda, Woulda,Shoulda
TTITLE9=Not The Staying Kind
EXTD=
EXTT0=
EXTT1=
EXTT2=
EXTT3=
EXTT4=
EXTT5=
EXTT6=
EXTT7=
EXTT8=
EXTT9=
PLAYORDER=
